# xmcd
# 
# Track frame offsets:
#     150
#     18593
#     37026
#     55171
#     73673
#     94838
#     113621
#     135638
#     152471
#     170871
#     207541
# 
# Disc length: 3418
# 
# Revision: 7
# Processed by: cddbd v1.5.2PL0 Copyright (c) Steve Scherf et al.
# Submitted via: fre:ac v1.0.17
# 
DISCID=9a0d580b
DTITLE=Michael Bolton - This Is The Time - The Christmas Album
DYEAR=1996
DGENRE=Christmas
TTITLE0=Said I Loved You... But I Lied
TTITLE1=I'm Not Made Of Steel
TTITLE2=The One Thing
TTITLE3=Soul Of My Soul
TTITLE4=Completely
TTITLE5=Lean On Me
TTITLE6=Ain't Got Nothing If You Ain't Got Love
TTITLE7=A Time For Letting Go
TTITLE8=Never Get Enough Of Your Love
TTITLE9=In The Arms Of Love
TTITLE10=The Voice Of My Heart
EXTD=
EXTT0=
EXTT1=
EXTT2=
EXTT3=
EXTT4=
EXTT5=
EXTT6=
EXTT7=
EXTT8=
EXTT9=
EXTT10=
PLAYORDER=
